<svg width="81" height="81" viewBox="0 0 81 81" fill="none" xmlns="http://www.w3.org/2000/svg">
<path d="M64.8042 11.549H4.6993C2.07692 11.549 0 13.7517 0 16.3531V53.2553C0 53.2762 0 53.2972 0 53.3182C0.020979 55.8776 2.13986 57.9336 4.6993 57.9126H7.13287V27.7657C7.13287 22.8357 11.1608 18.8916 16.0909 18.8916H69.4615V16.3531C69.4615 13.7517 67.4266 11.549 64.8042 11.549Z" fill="#0F6B8B"/>
<path d="M71.3497 54.9755C69.9231 53.7797 67.8042 53.9685 66.6084 55.3951C66.5035 55.521 66.3986 55.6259 66.2937 55.7098C65.3916 56.4441 64.07 56.2972 63.3357 55.3951C62.7063 54.6189 61.7413 54.1573 60.7343 54.1573C58.8462 54.1573 57.3357 55.6678 57.3567 57.556C57.3567 59.4231 58.8881 60.9336 60.7553 60.9336C61.7623 60.9546 62.7273 60.493 63.3567 59.7168C63.7553 59.2343 64.3427 58.9616 64.9721 58.9616C65.5804 58.9406 66.1888 59.2133 66.5874 59.6958C66.7343 59.8637 66.8602 60.0105 67.028 60.1364C68.4546 61.3322 70.5735 61.1434 71.7693 59.7168C72.9651 58.2902 72.7763 56.1713 71.3497 54.9755Z" fill="#0F6B8B"/>
<path d="M76.2167 23.0874H16.1118H16.0909C13.4685 23.0665 11.3496 25.1644 11.3286 27.7658V30.8497H80.979H80.9999V27.7658C80.9999 25.1434 78.8391 23.0874 76.2167 23.0874Z" fill="#0F6B8B"/>
<path d="M80.979 35.0454H11.3286V40.5H80.979V35.0454Z" fill="#0F6B8B"/>
<path d="M11.3286 44.6958V64.6468C11.3286 67.2902 13.4475 69.4301 16.0909 69.451H76.1957C78.8391 69.4301 80.958 67.2902 80.979 64.6468V44.6958H11.3286V44.6958ZM75.5034 61.7727C73.1538 65.2343 68.4335 66.1573 64.972 63.8077C63.7132 64.6678 62.2447 65.1084 60.7342 65.1084C56.5384 65.1084 53.1608 61.6888 53.1608 57.514C53.1608 53.3392 56.5384 49.9406 60.7342 49.9406C62.2447 49.9406 63.7132 50.3811 64.972 51.2413C67.5524 49.5 70.909 49.5 73.4685 51.2413C76.93 53.5909 77.8531 58.3112 75.5034 61.7727Z" fill="#0F6B8B"/>
</svg>
