<svg width="81" height="81" viewBox="0 0 81 81" fill="none" xmlns="http://www.w3.org/2000/svg">
<g clip-path="url(#clip0)">
<path d="M53.4574 56.7668L57.1614 50.7563L63.8458 48.4766L64.5864 41.456L69.6155 36.5051L67.2244 29.8596L69.6155 23.2139L64.5865 18.263L63.846 11.2425L57.1616 8.96284L53.4576 2.95223L46.4515 3.79814L40.5001 0L34.5486 3.79846L27.5428 2.95254L23.8388 8.963L17.1544 11.2427L16.4138 18.2631L11.3847 23.2141L13.7758 29.8597L11.3847 36.5054L16.4137 41.4562L17.1542 48.4768L23.8386 50.7565L27.5426 56.7669L34.5486 55.9212L40.5001 59.7195L46.4515 55.9212L53.4574 56.7668ZM20.024 29.8597C20.024 18.5692 29.2096 9.38366 40.5001 9.38366C51.7906 9.38366 60.9762 18.5692 60.9762 29.8597C60.9762 41.1502 51.7906 50.3358 40.5001 50.3358C29.2096 50.3358 20.024 41.1502 20.024 29.8597V29.8597Z" fill="#0F6B8B"/>
<path d="M40.4999 14.1328C31.828 14.1328 24.7729 21.1879 24.7729 29.8598C24.7729 38.5317 31.828 45.5868 40.4999 45.5868C49.1718 45.5868 56.2269 38.5317 56.2269 29.8598C56.2269 21.1879 49.1718 14.1328 40.4999 14.1328V14.1328Z" fill="#0F6B8B"/>
<path d="M33.4282 60.8398L25.0941 61.846L20.6908 54.7004L19.1939 54.1901L12.7371 74.3714L24.3611 73.7321L33.4554 81L38.8071 64.2728L33.4282 60.8398Z" fill="#0F6B8B"/>
<path d="M60.3093 54.7006L55.9059 61.846L47.5719 60.8398L42.193 64.2728L47.5447 81L56.639 73.7321L68.263 74.3714L61.8062 54.1901L60.3093 54.7006Z" fill="#0F6B8B"/>
</g>
<defs>
<clipPath id="clip0">
<rect width="81" height="81" fill="white"/>
</clipPath>
</defs>
</svg>
