<svg width="81" height="81" viewBox="0 0 81 81" fill="none" xmlns="http://www.w3.org/2000/svg">
<g clip-path="url(#clip0)">
<path d="M74.248 29.1856C68.8688 27.7676 63.9325 24.9264 59.9754 20.9693C56.0083 17.0022 53.1632 12.0518 51.7477 6.65327C51.7333 6.5979 51.7333 6.5979 51.3138 4.66988C51.3003 4.60786 51.2869 4.54632 51.2734 4.48462C44.6933 6.97363 39.1735 10.4253 34.8008 14.7981C29.9091 19.6897 26.1415 26.0789 23.6022 33.7883C21.7178 39.5094 20.8232 45.0655 20.4002 49.2236L2.2631 50.4669C2.25424 50.4676 2.24569 50.4693 2.23683 50.4701C2.18842 50.474 2.14049 50.4805 2.09271 50.4873C2.06075 50.4918 2.02864 50.4956 1.99731 50.5014C1.9584 50.5085 1.91995 50.5182 1.88151 50.5274C1.84227 50.5365 1.80304 50.5451 1.7646 50.5562C1.73612 50.5644 1.70859 50.5748 1.68043 50.584C1.63439 50.5992 1.5882 50.6141 1.54374 50.6319C1.52207 50.6406 1.50103 50.6512 1.47967 50.6606C1.4311 50.6818 1.38254 50.7028 1.33587 50.727C1.31308 50.7387 1.29141 50.7526 1.26894 50.7651C1.22576 50.7893 1.18241 50.8131 1.14112 50.8398C1.10979 50.8599 1.08021 50.8825 1.04999 50.9042C1.01946 50.926 0.988292 50.9468 0.958866 50.9699C0.920423 51.0001 0.884036 51.0331 0.847333 51.0659C0.827874 51.0833 0.807624 51.0994 0.788798 51.1175C0.750987 51.1534 0.715707 51.1921 0.680112 51.2307C0.663817 51.2485 0.646731 51.2652 0.631069 51.2833C0.600061 51.3192 0.571426 51.3573 0.542475 51.3953C0.523965 51.4193 0.504822 51.4427 0.487262 51.4676C0.464797 51.4995 0.444389 51.5331 0.423506 51.5663C0.401832 51.6006 0.379683 51.6345 0.35975 51.6699C0.344562 51.6968 0.331115 51.725 0.316877 51.7527C0.294254 51.7968 0.271947 51.8411 0.252013 51.8866C0.248691 51.8944 0.244261 51.9015 0.240939 51.9094C0.233345 51.9276 0.228125 51.946 0.221005 51.9642C0.202179 52.0116 0.184144 52.0592 0.168482 52.108C0.158673 52.1382 0.150605 52.1684 0.142062 52.1988C0.130038 52.2423 0.118331 52.2858 0.108681 52.3299C0.100454 52.3674 0.0941262 52.4049 0.0877981 52.4426C0.0816282 52.4799 0.0754582 52.5171 0.0710285 52.5549C0.0656496 52.6003 0.0624855 52.6456 0.0596379 52.6908C0.0577394 52.722 0.0556828 52.753 0.05505 52.7843C0.0539426 52.8357 0.0555246 52.8868 0.0577394 52.9377C0.0585305 52.9572 0.057423 52.9763 0.0588469 52.996C0.0594797 53.0047 0.0612199 53.0131 0.0618527 53.0219C0.0654914 53.067 0.0715031 53.1118 0.0776731 53.1562C0.082261 53.1898 0.0863743 53.2235 0.092386 53.2564C0.0990305 53.2926 0.107415 53.3282 0.115642 53.364C0.124976 53.4046 0.134152 53.4453 0.145542 53.485C0.153611 53.513 0.163103 53.5405 0.172121 53.5682C0.186992 53.6136 0.202021 53.6588 0.219423 53.7028C0.228916 53.727 0.239832 53.7506 0.250115 53.7745C0.269574 53.8194 0.289507 53.8642 0.311656 53.9074C0.324312 53.9324 0.338234 53.9566 0.35184 53.9811C0.373988 54.021 0.396295 54.0605 0.420658 54.099C0.438219 54.127 0.457203 54.154 0.476029 54.1812C0.498652 54.2138 0.521434 54.2463 0.545481 54.2777C0.568895 54.3083 0.593416 54.3377 0.618412 54.3671C0.640719 54.3934 0.663184 54.4195 0.686598 54.4446C0.714917 54.4752 0.744184 54.5048 0.774243 54.534C0.797657 54.5566 0.821229 54.5789 0.845593 54.6006C0.876759 54.6285 0.908557 54.6555 0.941306 54.6818C0.968675 54.7038 0.996519 54.7248 1.02484 54.7455C1.05569 54.7682 1.08685 54.7905 1.11913 54.8117C1.15456 54.8351 1.19095 54.8569 1.22765 54.8786C1.25471 54.8944 1.2816 54.9105 1.30945 54.9254C1.35754 54.9512 1.4069 54.9743 1.45673 54.9968C1.47192 55.0036 1.486 55.012 1.50135 55.0184L1.53979 55.0347C1.54216 55.0357 1.54454 55.0368 1.54691 55.0377L18.6682 62.2839L26.0398 79.5605C26.0434 79.5691 26.048 79.5771 26.0517 79.5857C26.0631 79.6113 26.0754 79.6365 26.0876 79.6618C26.1074 79.7026 26.1279 79.7426 26.1498 79.7817C26.161 79.802 26.1722 79.8222 26.1841 79.842C26.2157 79.8953 26.2491 79.947 26.2842 79.9969C26.2879 80.0019 26.291 80.0073 26.2947 80.0124C26.3377 80.0725 26.3836 80.1301 26.4314 80.1851C26.4345 80.1888 26.4378 80.1921 26.4412 80.1957C26.4847 80.2451 26.5301 80.2922 26.5769 80.3373C26.5872 80.3473 26.5976 80.3569 26.6081 80.3666C26.6519 80.4072 26.697 80.446 26.7432 80.4829C26.7531 80.4908 26.7626 80.4992 26.7726 80.5069C26.8269 80.5487 26.8826 80.5884 26.94 80.6251C26.9563 80.6355 26.9734 80.6449 26.99 80.655C27.031 80.6798 27.0724 80.7037 27.1146 80.726C27.1393 80.7392 27.1643 80.7517 27.1896 80.7638C27.2292 80.783 27.2694 80.8005 27.3097 80.8175C27.333 80.8271 27.3556 80.8376 27.3793 80.8466C27.4401 80.8697 27.5018 80.8899 27.5643 80.908C27.5855 80.914 27.607 80.919 27.6283 80.9246C27.6799 80.9379 27.732 80.9496 27.7842 80.9594C27.8024 80.9627 27.8202 80.9663 27.8386 80.9693C27.9647 80.9901 28.0928 81.0018 28.2221 81.0018C28.3211 81.0018 28.4206 80.9931 28.5201 80.9804C28.5755 80.9735 28.6309 80.9663 28.6848 80.9556C28.6989 80.9527 28.7127 80.9485 28.7267 80.9453C28.7899 80.9315 28.8523 80.9162 28.9134 80.8975C28.9294 80.8926 28.9451 80.8863 28.9609 80.8811C29.0194 80.8618 29.0772 80.8412 29.1338 80.8175C29.1396 80.8151 29.1457 80.8135 29.1517 80.811C29.1688 80.8037 29.1844 80.7945 29.2012 80.7868C29.2479 80.7654 29.2942 80.7436 29.3391 80.7194C29.3687 80.7036 29.397 80.6866 29.4257 80.6699C29.4606 80.6491 29.4953 80.6283 29.529 80.6058C29.5622 80.5838 29.5945 80.5609 29.6264 80.5375C29.6535 80.5175 29.6801 80.4973 29.7063 80.4761C29.74 80.449 29.7729 80.4212 29.8049 80.3924C29.828 80.3716 29.8505 80.3503 29.8728 80.3286C29.9038 80.2984 29.9341 80.2679 29.9634 80.2362C29.9859 80.2119 30.0074 80.1867 30.0287 80.1614C30.0545 80.131 30.08 80.1007 30.1041 80.069C30.1276 80.0383 30.1495 80.0067 30.1716 79.9747C30.1909 79.9466 30.2105 79.9187 30.2287 79.8899C30.2526 79.852 30.2746 79.8127 30.2964 79.7732C30.3102 79.7482 30.3244 79.7237 30.3372 79.6983C30.3592 79.6548 30.3789 79.6101 30.3983 79.5653C30.4086 79.5414 30.4195 79.5178 30.429 79.4936C30.4462 79.4495 30.4611 79.4042 30.4758 79.359C30.4848 79.3313 30.4943 79.3041 30.5024 79.2761C30.5136 79.2365 30.5225 79.1962 30.5317 79.1559C30.5399 79.1198 30.5486 79.084 30.5551 79.0475C30.5608 79.0154 30.5647 78.9826 30.5692 78.9499C30.5755 78.9043 30.5817 78.8589 30.5853 78.8132C30.5859 78.8056 30.5874 78.7983 30.588 78.7907L31.8399 60.5328C35.9903 60.1042 41.5303 59.2039 47.2304 57.3187C54.9073 54.7799 61.272 51.0202 66.1482 46.1439C70.4964 41.7956 73.9335 36.3131 76.4192 29.7818C75.2938 29.473 74.3558 29.2151 74.248 29.1856Z" fill="#0F6B8B"/>
<path d="M80.9384 3.38015C80.9101 1.51651 79.4281 0.0344624 77.5641 0.00614403C74.9175 -0.0345143 67.8871 0.075437 59.7392 1.94714C58.3913 2.2569 57.0779 2.59957 55.7982 2.97372C55.8407 3.16831 55.8901 3.39486 55.948 3.66143C56.1245 4.47302 56.3041 5.29805 56.3473 5.49596C57.5528 10.0623 59.9667 14.2535 63.3288 17.6158C66.6949 20.9817 70.8919 23.3976 75.4663 24.6019C75.4875 24.6076 75.4912 24.6085 77.9311 25.2791C78.3205 23.9575 78.6769 22.6001 78.9974 21.2052C80.8691 13.0573 80.9784 6.02515 80.9384 3.38015ZM70.3638 13.981C70.3083 14.0366 70.25 14.0886 70.1898 14.1375C70.1296 14.1866 70.0667 14.2324 70.0032 14.2766C69.9384 14.3193 69.8721 14.3588 69.8025 14.3952C69.7343 14.4316 69.665 14.4648 69.5938 14.4949C69.5226 14.5234 69.4484 14.5504 69.3756 14.5724C69.3013 14.5946 69.2255 14.6151 69.1494 14.6294C69.0736 14.6452 68.9961 14.6563 68.9186 14.6642C68.8428 14.6721 68.7639 14.6768 68.6862 14.6768C68.6085 14.6768 68.5297 14.6721 68.4524 14.6642C68.3764 14.6563 68.2989 14.6452 68.2231 14.6294C68.1472 14.615 68.0714 14.5944 67.9971 14.5724C67.9241 14.5503 67.8499 14.5232 67.7787 14.4949C67.7077 14.465 67.6367 14.4318 67.5685 14.3952C67.5005 14.3588 67.4342 14.3193 67.3693 14.2766C67.3044 14.2323 67.2429 14.1864 67.1828 14.1375C67.1227 14.0883 67.0641 14.0363 67.0089 13.981C66.5679 13.54 66.3147 12.928 66.3147 12.3052C66.3147 12.2277 66.318 12.1487 66.326 12.0712C66.3339 11.9937 66.3465 11.9179 66.3608 11.842C66.3767 11.7662 66.3956 11.6903 66.4177 11.6159C66.4413 11.5415 66.4668 11.4689 66.4968 11.3977C66.5267 11.3266 66.5599 11.2555 66.5949 11.1875C66.6311 11.1195 66.6723 11.0516 66.7151 10.9883C66.7579 10.9234 66.8037 10.8602 66.8526 10.8002C66.9017 10.7401 66.9553 10.6831 67.0091 10.6279C67.0645 10.5726 67.123 10.5203 67.1829 10.4715C67.2431 10.4224 67.3046 10.3765 67.3695 10.3324C67.4343 10.2897 67.5006 10.2501 67.5686 10.2139C67.6368 10.1777 67.7079 10.1445 67.7789 10.1158C67.8501 10.0859 67.9243 10.059 67.9972 10.0367C68.0716 10.0146 68.1472 9.99558 68.2233 9.97992C68.2991 9.96394 68.3766 9.95303 68.4525 9.94496C68.6073 9.92914 68.7655 9.92914 68.9188 9.94496C68.9963 9.95303 69.0736 9.96394 69.1496 9.97992C69.2255 9.99574 69.3015 10.0147 69.3758 10.0367C69.4486 10.059 69.5228 10.0859 69.594 10.1158C69.6652 10.1445 69.7346 10.1777 69.8026 10.2139C69.8721 10.2503 69.9384 10.2898 70.0034 10.3324C70.0667 10.3767 70.1298 10.4226 70.1899 10.4715C70.2502 10.5207 70.3086 10.5729 70.3639 10.6279C70.805 11.069 71.058 11.6809 71.058 12.3054C71.0578 12.9279 70.8049 13.5398 70.3638 13.981Z" fill="#0F6B8B"/>
</g>
<defs>
<clipPath id="clip0">
<rect width="81" height="81" fill="white"/>
</clipPath>
</defs>
</svg>
