<svg width="81" height="81" viewBox="0 0 81 81" fill="none" xmlns="http://www.w3.org/2000/svg">
<g clip-path="url(#clip0)">
<path d="M78.893 68.8699L47.1314 37.1081L10.0233 0H7.12324L6.53108 1.50467C4.96819 5.4762 4.30042 9.53822 4.60021 13.2511C4.94193 17.4833 6.54975 21.1475 9.25012 23.8479L38.2187 52.8164L42.0396 48.9955L68.821 78.9423C71.4852 81.6064 76.0707 81.7646 78.893 78.9423C81.6701 76.1652 81.6701 71.6469 78.893 68.8699Z" fill="#0F6B8B"/>
<path d="M24.7948 46.1071L2.10676 68.7951C-0.670025 71.5719 -0.670025 76.0903 2.10676 78.8671C4.74463 81.505 9.308 81.7379 12.1788 78.8671L34.867 56.1789L24.7948 46.1071Z" fill="#0F6B8B"/>
<path d="M77.5596 13.4867L64.6896 26.3565L61.3321 22.9991L74.202 10.1291L70.8447 6.77174L57.9748 19.6416L54.6174 16.2842L67.4874 3.41436L64.1302 0.0571289L47.3433 16.8441C45.2896 18.8977 44.0634 21.6245 43.89 24.5225C43.8462 25.2567 43.6798 25.9789 43.4037 26.6658L54.3085 37.5706C54.9954 37.2942 55.7177 37.1279 56.4518 37.0841C59.3498 36.9112 62.0766 35.6846 64.1302 33.631L80.9171 16.8442L77.5596 13.4867Z" fill="#0F6B8B"/>
</g>
<defs>
<clipPath id="clip0">
<rect width="81" height="81" fill="white"/>
</clipPath>
</defs>
</svg>
